<?xml version="1.0" standalone="no"?>
<!DOCTYPE svg PUBLIC "-//W3C//DTD SVG 20010904//EN"
 "http://www.w3.org/TR/2001/REC-SVG-20010904/DTD/svg10.dtd">
<svg version="1.0" xmlns="http://www.w3.org/2000/svg"
 width="1200.000000pt" height="630.000000pt" viewBox="0 0 1200.000000 630.000000"
 preserveAspectRatio="xMidYMid meet">

<g transform="translate(0.000000,630.000000) scale(0.100000,-0.100000)"
fill="#000000" stroke="none">
<path d="M5045 6133 c-16 -2 -62 -11 -102 -19 l-72 -16 -3 -61 -3 -62 -60 -16
-60 -16 -3 -81 -3 -82 -54 0 c-103 0 -197 -30 -272 -86 l-33 -25 -2 173 -3
173 -76 7 c-42 4 -128 18 -190 32 -63 14 -120 26 -126 26 -9 0 -13 -18 -13
-60 0 -58 -1 -59 -22 -51 -13 4 -40 11 -60 15 l-38 7 0 -76 c0 -41 -1 -75 -2
-75 -2 0 -21 7 -43 15 -53 19 -134 19 -180 -1 -20 -8 -58 -35 -85 -60 l-47
-44 5 51 5 50 -39 -6 c-22 -4 -88 -18 -149 -32 -60 -14 -135 -31 -165 -37
l-55 -12 -3 -61 c-4 -81 -24 -90 -83 -39 -77 65 -267 109 -474 110 -116 1
-135 -1 -173 -21 -23 -13 -45 -23 -47 -23 -3 0 -5 27 -5 60 l0 60 -45 0 c-58
0 -113 -28 -157 -80 -19 -22 -37 -40 -39 -40 -3 0 -2 26 2 58 3 31 3 61 -1 66
-18 19 -375 -40 -390 -65 -4 -5 -14 16 -24 46 -22 70 -70 119 -150 155 -73 32
-139 46 -304 60 -197 18 -299 -5 -395 -86 -187 -156 -185 -152 -199 -426 -11
-225 -4 -756 12 -831 38 -184 218 -362 403 -399 81 -15 150 6 202 63 20 22 38
39 39 37 2 -1 10 -23 18 -48 12 -36 20 -46 41 -48 36 -4 186 22 352 63 77 19
170 39 207 45 l67 12 3 61 3 62 63 3 62 3 0 359 c0 233 4 360 10 360 6 0 10
-13 10 -30 0 -28 2 -30 38 -30 47 0 212 -30 212 -39 0 -3 -18 -14 -40 -23 -22
-9 -47 -29 -57 -45 -9 -16 -38 -41 -64 -56 -79 -44 -84 -61 -84 -278 l0 -185
30 -59 c79 -153 347 -230 440 -125 l20 22 5 -48 5 -49 80 -13 c44 -7 126 -11
183 -9 l102 4 0 -90 0 -90 42 6 c23 3 113 23 200 44 l158 38 0 62 0 61 43 7
c72 11 77 14 77 45 0 28 2 29 33 22 56 -12 173 -6 221 12 25 10 59 33 76 52
l30 35 0 -55 0 -54 168 -40 c92 -23 181 -44 199 -47 l32 -6 3 63 3 62 50 -3
c27 -1 53 -5 57 -7 5 -3 8 -32 8 -65 l0 -59 48 0 c84 1 191 19 382 65 104 25
226 48 272 52 l83 8 3 63 c3 53 6 62 22 62 10 0 42 -23 70 -50 58 -57 196
-129 300 -157 37 -10 101 -18 150 -18 112 0 147 19 269 143 136 139 170 226
171 432 l0 75 -180 0 -180 0 0 -57 c0 -65 1 -64 -77 -48 l-48 11 -3 129 c-1
72 2 130 7 130 5 0 43 -7 85 -16 42 -8 120 -16 174 -17 l97 -2 -3 63 -3 62 34
0 c19 0 49 3 66 6 30 6 31 8 31 63 0 80 -18 177 -42 233 -74 171 -462 313
-668 244 -38 -13 -68 -34 -102 -68 l-48 -49 0 89 c0 100 -1 102 -82 102 -37 0
-38 1 -38 36 l0 37 60 -6 60 -7 0 110 0 110 -102 -1 c-57 -1 -116 -4 -133 -6z
m103 -229 l-3 -88 -90 -12 c-49 -7 -133 -22 -185 -33 -52 -12 -100 -21 -107
-21 -11 0 -13 21 -11 92 l3 92 115 28 c122 30 260 49 273 38 4 -4 7 -47 5 -96z
m-1108 32 c80 -19 156 -36 170 -38 l25 -3 3 -178 c1 -98 6 -177 10 -175 133
68 147 72 245 76 113 5 166 -10 213 -59 l29 -30 3 -579 2 -579 -37 -10 c-52
-14 -243 -41 -286 -41 l-36 0 -3 518 c-2 389 -6 522 -15 539 -19 33 -70 40
-97 14 -21 -21 -21 -26 -24 -536 l-3 -515 -24 0 c-13 0 -88 16 -167 35 -79 19
-154 37 -167 40 l-24 6 9 107 c10 121 9 855 -1 1215 -7 229 -6 239 12 233 10
-3 83 -21 163 -40z m-2886 -20 c138 -32 258 -89 314 -149 55 -60 72 -121 79
-284 l6 -132 -29 -6 c-16 -4 -36 -9 -44 -11 -49 -12 -212 -24 -260 -18 l-57 6
-6 150 c-6 158 -15 190 -57 203 -40 13 -68 -3 -80 -43 -8 -25 -10 -190 -8
-524 3 -476 3 -487 24 -515 31 -41 86 -44 111 -7 15 24 18 51 18 188 0 121 -3
161 -12 162 -7 1 -24 2 -38 3 l-25 1 0 115 0 115 28 -7 c48 -13 293 -7 365 9
l67 16 -2 -417 -3 -416 -60 -12 c-33 -6 -87 -13 -120 -15 l-59 -3 -19 53 c-11
28 -22 52 -26 52 -3 0 -15 -14 -26 -31 -53 -80 -164 -105 -280 -61 -160 60
-292 214 -324 379 -15 73 -15 898 -1 987 35 223 196 287 524 212z m3716 -192
l0 -35 -24 28 c-22 25 -23 29 -8 35 29 11 32 9 32 -28z m-2690 -48 c0 -36 -5
-68 -10 -71 -29 -18 -61 -109 -72 -205 -10 -96 -12 -102 -37 -111 -51 -18 -76
-38 -96 -76 -18 -35 -20 -64 -23 -405 l-4 -366 -66 -12 c-37 -6 -120 -24 -184
-41 -64 -16 -118 -29 -120 -29 -2 0 -4 287 -6 638 l-3 637 78 18 c156 37 249
56 277 57 l28 0 -7 -80 c-4 -44 -4 -80 -1 -80 3 0 14 17 25 39 11 21 32 53 48
71 29 35 113 80 151 80 21 0 22 -4 22 -64z m1528 48 c46 -19 98 -68 123 -116
18 -35 19 -65 19 -543 0 -543 1 -533 -52 -582 -41 -38 -97 -56 -178 -56 -100
1 -149 15 -209 63 l-51 40 0 -148 0 -148 -152 -37 c-84 -20 -169 -39 -188 -42
l-35 -6 0 730 c-1 710 0 731 18 731 10 0 85 16 165 35 81 19 157 37 170 40 21
5 22 2 22 -52 l0 -56 55 60 c30 33 74 70 97 82 52 25 142 28 196 5z m1438
-131 c-13 -245 -21 -698 -14 -768 4 -38 10 -138 14 -221 l7 -152 -29 -5 c-16
-3 -55 -9 -87 -12 -32 -4 -103 -18 -158 -31 -55 -13 -102 -24 -104 -24 -2 0
-6 249 -9 553 -3 303 -9 589 -12 634 l-5 82 39 11 c38 10 197 43 252 53 14 2
45 5 69 6 l43 1 -6 -127z m434 86 c141 -39 291 -131 355 -218 35 -49 56 -131
63 -245 l5 -99 -89 7 c-49 4 -128 15 -174 24 l-85 17 -6 121 c-4 66 -11 130
-17 141 -6 11 -25 26 -42 33 -27 11 -33 10 -50 -5 -19 -17 -20 -32 -20 -406 0
-223 4 -398 10 -413 24 -63 97 -90 121 -43 7 12 14 78 17 153 l4 130 62 -13
c33 -8 108 -17 165 -20 l104 -6 -5 -121 c-7 -155 -29 -218 -103 -292 -80 -80
-157 -98 -295 -69 -215 45 -370 149 -420 281 -19 52 -20 77 -20 465 0 465 -2
450 84 526 83 73 197 91 336 52z m-3062 -15 c221 -45 361 -117 416 -214 l31
-55 3 -531 3 -531 -32 -7 c-48 -9 -165 -6 -249 7 l-75 12 -3 58 -3 59 -44 -41
c-52 -48 -97 -59 -179 -42 -115 24 -214 91 -250 171 -16 37 -20 71 -23 200 -5
189 6 240 57 281 39 31 137 61 283 85 139 23 142 26 142 161 0 124 -13 156
-66 168 -54 12 -62 -6 -63 -149 -1 -69 -2 -126 -3 -126 -1 0 -48 11 -105 25
-57 14 -136 28 -175 32 -68 5 -73 8 -73 29 0 19 6 23 38 26 l37 3 3 162 2 162
28 19 c77 53 165 64 300 36z m-346 -224 l-3 -140 -30 0 c-29 0 -29 0 -29 58 0
31 5 77 10 102 11 50 40 120 49 120 3 0 5 -63 3 -140z m1695 -562 c-1 -101 -2
-19 -2 182 0 201 1 283 2 183 2 -101 2 -265 0 -365z m-2319 447 c-13 -14 -169
-35 -254 -35 l-94 0 0 -60 c0 -57 -1 -60 -25 -60 -24 0 -25 2 -25 68 l0 68
128 2 c70 0 159 7 197 14 67 13 84 14 73 3z m1012 -65 c14 -3 26 -14 28 -22 2
-12 -10 -18 -50 -25 -29 -5 -56 -8 -60 -6 -5 2 -8 20 -8 38 0 34 1 34 33 28
17 -3 43 -9 57 -13z m-1401 -432 c-2 -83 -2 -88 -9 -43 -12 72 -12 135 0 135
6 0 9 -37 9 -92z"/>
<path d="M3384 5489 c-18 -20 -19 -41 -22 -421 -2 -349 -1 -404 13 -424 20
-31 65 -32 91 -3 18 20 19 44 22 409 2 213 -1 403 -6 422 -7 29 -13 33 -43 36
-26 2 -40 -3 -55 -19z"/>
<path d="M2543 4934 c-66 -44 -76 -70 -77 -203 0 -128 8 -152 53 -171 38 -15
58 -8 71 25 12 31 14 375 2 375 -4 0 -26 -12 -49 -26z"/>
<path d="M6580 6130 c-30 -6 -103 -22 -162 -36 l-108 -26 0 -63 0 -62 -60 -12
-59 -12 -3 -227 c-2 -125 -2 -482 0 -793 l3 -566 182 44 c175 43 191 45 397
52 123 5 228 14 245 20 17 7 48 29 70 50 61 59 68 58 109 -9 45 -72 100 -121
185 -163 54 -27 78 -32 156 -35 188 -8 308 65 447 272 5 7 17 -1 34 -22 15
-18 43 -44 63 -56 75 -47 293 -88 471 -87 109 0 148 10 196 46 l34 26 0 -60
c0 -48 3 -61 18 -65 48 -15 217 -36 292 -37 l85 0 25 -52 c61 -124 219 -135
547 -37 143 42 188 65 259 131 35 32 70 59 79 59 9 0 91 -18 184 -40 92 -22
173 -40 180 -40 7 0 11 22 11 61 l0 62 38 -7 c20 -3 45 -6 55 -6 14 0 17 -10
17 -65 l0 -65 83 0 c75 0 207 18 282 38 29 8 30 11 33 70 l3 62 61 18 62 18 0
529 c0 589 -3 621 -57 679 -80 85 -299 58 -410 -49 -20 -19 -38 -35 -40 -35
-3 0 -2 20 1 45 5 52 11 48 -108 64 -47 6 -159 29 -250 51 -159 38 -364 68
-393 57 -8 -3 -17 -21 -21 -41 -4 -19 -11 -38 -15 -41 -5 -2 -26 9 -46 25 -21
17 -50 33 -64 36 -14 3 -35 7 -45 9 -29 6 -116 -13 -162 -36 -58 -28 -128 -92
-145 -131 l-14 -33 -5 55 c-3 30 -9 54 -15 54 -5 -1 -34 -5 -63 -9 l-53 -7 3
33 c3 33 5 34 63 44 l60 11 3 108 3 109 -23 -8 c-13 -5 -106 -9 -207 -11
l-185 -2 3 -57 3 -57 -29 6 c-15 3 -45 8 -65 12 l-38 6 0 -97 0 -96 -30 21
c-100 71 -263 118 -372 106 -110 -11 -171 -51 -264 -173 l-22 -27 -40 36 c-23
20 -56 45 -74 54 -90 47 -409 15 -561 -56 -25 -12 -66 -42 -91 -68 -25 -25
-49 -43 -53 -39 -3 4 -10 56 -14 115 -10 152 -49 235 -145 310 -57 45 -123 78
-197 98 -65 18 -263 26 -337 14z m236 -141 c76 -14 164 -61 210 -112 20 -22
50 -69 68 -106 l31 -66 -3 -185 c-5 -261 -7 -787 -3 -866 2 -52 -2 -75 -21
-112 -38 -78 -61 -85 -282 -93 -200 -8 -270 -18 -475 -68 -68 -17 -128 -31
-132 -31 -5 0 -9 350 -9 778 l0 778 153 37 c83 20 175 41 202 46 72 13 192 13
261 0z m2069 -90 c33 -6 113 -12 177 -13 l118 -1 0 -97 0 -98 -97 1 c-54 0
-141 8 -193 17 l-95 17 -3 98 c-3 91 -1 98 15 93 10 -2 45 -10 78 -17z m-331
-207 c62 -31 98 -57 138 -101 80 -85 88 -109 88 -241 0 -99 -2 -111 -16 -106
-18 7 -207 50 -265 60 l-37 6 -4 89 c-2 53 -9 96 -17 105 -18 21 -79 21 -103
-1 -26 -23 -25 -136 0 -178 11 -16 78 -72 150 -124 150 -107 241 -186 271
-235 20 -31 21 -48 21 -253 l0 -219 -28 -27 c-41 -39 -103 -57 -198 -57 -111
0 -303 26 -386 52 -120 37 -184 116 -160 197 6 20 12 71 14 113 l2 77 51 12
c27 6 93 13 146 16 l97 6 4 -102 c4 -113 16 -135 74 -147 25 -5 37 -1 53 15
18 18 21 33 21 99 -1 42 -6 87 -13 99 -21 37 -106 95 -247 166 -186 94 -186
94 -188 215 -1 53 -10 132 -19 175 -13 62 -14 85 -5 116 25 82 107 161 211
203 37 15 66 18 153 15 103 -3 111 -5 192 -45z m1497 11 c7 -7 9 -212 7 -640
l-3 -630 -30 -43 c-54 -78 -131 -119 -330 -174 -158 -43 -277 -60 -348 -47
-76 13 -106 34 -133 92 -16 33 -20 57 -17 97 5 48 7 52 31 52 15 0 90 15 167
33 l141 33 14 -31 c20 -41 66 -46 106 -11 28 23 29 28 32 131 3 77 1 105 -7
100 -6 -3 -8 -12 -5 -18 4 -7 4 -9 -1 -5 -4 4 -25 -7 -46 -26 -70 -59 -142
-89 -230 -94 -92 -5 -126 6 -169 55 l-30 34 0 435 c0 409 1 437 19 472 27 53
77 97 146 129 50 23 73 28 142 28 76 0 84 -2 127 -32 l47 -33 9 25 c5 14 13
37 16 50 4 16 15 25 32 29 50 8 302 0 313 -11z m-1155 -8 c11 -3 14 -59 3 -70
-3 -3 -23 15 -43 40 l-37 45 33 -6 c18 -3 38 -7 44 -9z m1357 -34 c89 -22 171
-41 181 -43 17 -3 20 -10 17 -61 -1 -31 0 -57 4 -57 3 0 19 15 35 34 47 52
111 78 212 84 145 8 224 -39 247 -148 7 -33 11 -233 11 -580 l0 -528 -97 -18
c-54 -10 -138 -18 -188 -18 l-90 -1 -5 526 c-4 425 -8 529 -19 542 -8 11 -28
17 -52 17 -36 0 -39 -3 -48 -37 -7 -24 -11 -221 -11 -535 0 -274 -2 -498 -5
-498 -7 0 -344 80 -364 86 -11 4 -12 19 -7 72 3 37 6 322 6 635 0 312 2 567 5
567 3 0 78 -18 168 -39z m-1360 -46 c43 -8 126 -15 184 -15 l106 0 -9 -122
c-10 -153 -10 -680 1 -890 6 -120 5 -161 -5 -172 -8 -10 -10 -29 -5 -56 l7
-40 -71 0 c-65 0 -251 23 -293 36 -26 8 -24 107 3 187 30 88 30 257 0 346 -20
57 -22 79 -17 205 2 77 6 150 7 161 1 11 -1 100 -6 198 -6 148 -5 177 6 177 8
0 49 -7 92 -15z m-1075 -17 c53 -20 101 -52 127 -87 18 -23 20 -42 20 -161 1
-119 3 -141 23 -186 16 -34 22 -65 20 -94 l-3 -44 -55 -12 c-171 -40 -296 -64
-369 -70 l-83 -7 4 -186 c4 -215 8 -231 67 -231 67 0 75 19 81 188 l5 146 70
12 c39 6 116 24 172 38 56 14 104 26 107 26 3 0 6 -15 6 -34 0 -27 -5 -36 -21
-41 -21 -7 -22 -10 -15 -134 l6 -126 -35 -60 c-92 -153 -228 -235 -393 -235
-160 0 -303 94 -379 250 l-26 55 1 411 c0 391 1 414 20 450 47 90 115 127 277
148 76 10 331 -1 373 -16z m187 -338 c5 -98 4 -103 -9 -70 -9 22 -14 71 -14
135 0 131 16 85 23 -65z m1172 -312 c-1 -62 -3 -12 -3 112 0 124 2 174 3 113
2 -62 2 -164 0 -225z m-419 286 c13 -4 22 -14 22 -25 0 -26 -12 -24 -40 6 -24
26 -21 29 18 19z m-716 -149 c0 -5 -5 -11 -11 -13 -6 -2 -11 4 -11 13 0 9 5
15 11 13 6 -2 11 -8 11 -13z m-280 -161 c2 -19 0 -38 -4 -40 -5 -3 -33 -8 -63
-11 l-55 -6 0 35 c0 34 1 35 53 45 28 5 55 11 58 11 4 1 9 -14 11 -34z m1052
-214 c0 -77 -5 -146 -12 -160 -8 -20 -11 15 -11 160 0 147 3 180 12 160 7 -15
11 -79 11 -160z m-804 93 c0 -21 -4 -63 -8 -93 l-7 -55 -5 85 c-6 89 -5 100
11 100 5 0 9 -17 9 -37z m1290 -357 c0 -13 -41 -26 -86 -26 -59 0 -8 25 79 39
4 0 7 -5 7 -13z"/>
<path d="M6592 5218 l3 -523 30 3 c45 5 78 24 92 52 10 22 17 480 14 878 -1
92 -17 112 -91 112 l-50 0 2 -522z"/>
<path d="M9582 5475 c-28 -36 -35 -123 -30 -416 3 -271 6 -283 61 -277 19 2
38 13 51 31 20 27 21 39 21 341 0 341 -1 346 -55 346 -19 0 -36 -9 -48 -25z"/>
<path d="M7540 5397 c-30 -15 -42 -74 -38 -181 l3 -71 63 -3 62 -3 0 111 c0
104 -1 112 -25 135 -28 29 -31 29 -65 12z"/>
<path d="M8358 3883 c-21 -14 -38 -30 -38 -34 0 -5 -8 -9 -19 -9 -25 0 -45
-26 -36 -47 8 -22 18 -135 16 -185 -1 -21 5 -43 14 -51 19 -20 19 -47 0 -47
-24 0 -19 -48 5 -52 25 -4 27 -23 3 -23 -16 0 -18 -14 -18 -130 -1 -72 2 -140
6 -151 4 -12 3 -26 -3 -32 -8 -8 -7 -19 1 -41 10 -23 10 -34 1 -52 -7 -12 -14
-65 -16 -118 -3 -101 -19 -258 -29 -302 -12 -46 20 -44 91 3 61 41 63 45 64
84 0 28 -5 44 -15 48 -21 8 -19 43 3 50 17 6 18 22 16 254 -2 136 -3 252 -4
257 0 6 4 39 10 74 6 36 8 73 4 83 -5 18 16 48 35 48 5 0 26 -34 46 -75 20
-41 41 -75 48 -75 14 0 39 -58 31 -71 -6 -11 142 -308 168 -336 14 -15 19 -30
15 -45 -4 -13 1 -40 12 -63 11 -22 33 -70 50 -106 17 -37 37 -69 45 -72 7 -3
23 -26 36 -51 32 -66 67 -62 105 14 13 26 31 50 40 54 11 4 14 12 10 27 -5 16
2 31 33 63 37 39 80 109 194 323 27 51 53 95 58 98 12 7 50 93 50 111 0 14 52
113 82 156 10 15 18 30 17 35 -7 39 27 47 37 9 3 -14 3 -29 1 -33 -3 -5 -1
-29 5 -54 12 -51 13 -64 22 -264 3 -82 8 -202 11 -265 3 -63 1 -160 -4 -215
-5 -55 -8 -101 -6 -104 2 -2 19 2 37 10 18 7 40 15 48 16 22 3 60 54 61 83 4
55 -4 146 -13 157 -5 7 -7 21 -4 31 4 11 0 81 -9 157 -8 75 -15 181 -15 235 0
90 -2 99 -20 105 -25 8 -25 29 0 63 19 26 20 35 11 162 -5 77 -5 139 0 144 5
6 9 27 9 48 0 34 -3 38 -26 38 -23 0 -25 3 -23 34 2 19 0 38 -4 42 -10 10 -84
-45 -122 -91 -45 -54 -58 -89 -44 -119 9 -20 7 -27 -15 -49 -27 -27 -34 -47
-16 -47 16 0 12 -18 -8 -38 -20 -20 -82 -163 -82 -188 0 -10 -11 -36 -24 -58
-13 -23 -42 -84 -65 -136 -76 -178 -217 -400 -255 -400 -7 0 -22 19 -34 43
-94 177 -142 247 -169 247 -12 0 -14 8 -10 34 6 40 -34 136 -57 136 -12 0 -14
7 -10 29 5 25 2 30 -25 39 -35 12 -35 12 -20 45 18 40 -41 184 -92 225 -22 18
-27 28 -20 39 12 22 -4 74 -29 95 -17 13 -18 21 -10 43 8 21 5 35 -18 76 -15
27 -31 59 -37 69 -13 27 -42 24 -87 -7z"/>
<path d="M9917 3873 c-74 -37 -87 -58 -67 -117 16 -51 48 -86 76 -86 17 0 24
-5 24 -20 0 -11 -5 -20 -11 -20 -29 0 129 -175 167 -184 14 -4 29 -17 34 -31
5 -13 19 -25 32 -27 19 -2 24 -11 28 -44 4 -31 14 -48 43 -73 23 -21 37 -42
37 -57 0 -13 5 -24 10 -24 15 0 134 -119 127 -127 -4 -3 -2 -12 5 -20 8 -10 8
-20 0 -36 -6 -12 -13 -40 -15 -62 -2 -22 -7 -48 -11 -57 -6 -13 -4 -18 9 -18
13 0 15 -4 9 -17 -4 -10 -9 -47 -11 -83 -1 -36 -6 -90 -12 -120 -13 -76 0 -90
66 -71 27 8 65 16 86 19 41 5 46 16 20 44 -13 14 -14 21 -5 30 15 15 16 98 2
98 -13 0 -13 57 1 62 5 2 13 23 16 46 4 33 2 47 -13 63 -17 19 -17 21 -1 48 9
16 17 41 17 56 0 16 17 53 40 86 22 32 40 68 40 79 0 11 11 27 25 36 14 9 39
39 55 68 17 28 44 71 60 96 16 25 29 54 29 66 1 11 16 35 35 53 19 19 45 57
57 85 12 28 28 55 35 59 8 4 23 25 33 45 10 20 35 61 55 91 39 58 46 91 19 91
-31 0 -127 -65 -147 -99 -18 -31 -18 -34 -3 -43 24 -13 21 -28 -5 -28 -28 0
-52 -40 -97 -156 -17 -44 -43 -96 -57 -114 -14 -19 -35 -53 -46 -75 -41 -78
-152 -205 -180 -205 -10 0 -24 12 -32 28 -16 31 -46 60 -79 76 -12 7 -22 20
-22 30 0 10 -10 26 -23 36 -12 10 -39 38 -58 62 -20 24 -37 41 -38 39 0 -2
-11 1 -24 8 -14 7 -22 19 -19 29 4 19 -38 100 -61 120 -9 6 -34 12 -55 12
l-40 0 7 39 c4 29 2 40 -9 45 -9 3 -15 18 -15 34 0 16 -10 41 -21 56 -16 21
-20 36 -16 66 4 34 2 39 -18 42 -13 3 -50 -9 -88 -29z"/>
<path d="M5672 3768 c3 -8 42 -18 99 -25 52 -7 106 -17 122 -22 15 -6 27 -6
27 -1 0 11 -49 27 -144 45 -95 18 -109 19 -104 3z"/>
<path d="M4993 3705 c-57 -18 -144 -66 -138 -76 3 -4 -16 -11 -42 -14 -27 -4
-87 -16 -135 -27 l-88 -20 0 -33 c0 -20 6 -35 15 -38 8 -4 24 -25 36 -49 28
-56 55 -85 104 -111 36 -20 55 -22 175 -21 110 0 149 5 210 23 98 29 169 77
210 140 18 27 39 52 48 56 25 9 55 -6 88 -44 41 -48 114 -87 188 -100 77 -14
315 -14 392 0 111 20 161 66 178 161 10 56 34 63 89 28 25 -15 64 -45 86 -65
23 -21 41 -34 41 -31 0 43 -136 168 -205 188 -25 7 -119 12 -245 12 -167 0
-231 -5 -345 -23 -115 -19 -196 -24 -460 -30 -176 -4 -322 -6 -324 -4 -6 4 73
34 136 50 35 10 62 22 60 28 -5 15 -27 15 -74 0z m603 -111 c-19 -19 -21 -50
-3 -57 6 -3 8 -6 2 -6 -17 -1 -32 13 -39 37 -6 17 -3 24 16 31 34 14 41 13 24
-5z m-855 -117 c15 -4 14 -4 -3 -3 -16 1 -23 8 -24 21 -1 14 0 15 3 3 2 -9 13
-19 24 -21z"/>
<path d="M2401 3584 c-42 -35 -44 -98 -5 -135 23 -21 36 -24 126 -27 l100 -4
-6 -36 c-3 -21 -6 -173 -6 -339 l0 -301 -95 -7 c-83 -6 -98 -11 -120 -33 -17
-17 -25 -36 -25 -59 0 -45 14 -69 52 -89 27 -14 46 -14 147 -5 64 6 195 13
291 17 96 3 183 10 193 16 25 13 46 67 40 101 -3 15 -19 38 -35 52 -28 23 -37
25 -143 25 l-113 0 5 313 c2 171 6 318 9 325 3 11 26 12 113 7 109 -7 110 -7
135 18 20 20 26 36 26 67 0 52 -12 74 -47 88 -48 19 -215 32 -417 32 l-194 0
-31 -26z"/>
<path d="M3615 3585 c-187 -42 -338 -178 -360 -325 -11 -78 28 -140 117 -186
64 -32 119 -43 276 -55 149 -10 194 -25 217 -70 38 -73 4 -138 -97 -184 -164
-75 -335 -74 -396 2 -65 82 -79 93 -119 93 -49 0 -78 -21 -93 -64 -18 -55 2
-112 60 -167 71 -69 137 -92 287 -97 220 -7 392 45 498 152 49 50 63 71 74
114 25 102 -5 217 -74 287 -73 72 -145 94 -383 114 -124 10 -162 25 -162 65 0
55 83 112 199 137 42 9 69 7 156 -10 57 -11 113 -18 122 -14 38 13 73 56 73
88 0 52 -50 83 -182 115 -95 23 -130 24 -213 5z"/>
<path d="M6190 3239 c-82 -42 -153 -68 -275 -100 l-110 -28 118 6 117 6 0 -27
c0 -14 2 -26 5 -26 13 0 94 56 128 89 38 35 83 99 76 106 -2 1 -29 -10 -59
-26z"/>
<path d="M4920 3120 c23 -21 132 -80 146 -80 3 0 4 6 1 14 -4 10 6 17 31 24
36 10 37 10 7 11 -26 1 -123 24 -190 46 -17 6 -16 3 5 -15z"/>
<path d="M3282 1858 c114 -301 188 -504 188 -515 0 -3 -4 -2 -10 2 -5 3 -110
6 -234 6 l-225 1 -35 112 c-19 61 -50 161 -69 221 -19 61 -37 103 -41 95 -3
-8 -30 -96 -60 -195 -54 -179 -85 -263 -86 -237 0 11 -41 13 -220 10 -121 -1
-220 0 -220 4 0 6 61 173 113 309 l26 66 -161 159 c-89 87 -151 144 -139 126
32 -47 60 -132 73 -223 20 -144 -16 -302 -93 -399 l-40 -50 -622 1 -622 2 -2
-208 c-2 -207 5 -261 30 -236 15 15 30 14 21 -1 -6 -10 -4 -10 7 -1 17 17 76
17 82 1 4 -10 8 -10 15 1 5 7 14 11 18 8 5 -3 74 -8 154 -12 80 -4 148 -9 152
-11 4 -3 9 19 11 48 2 29 4 -38 5 -149 l2 -203 -239 0 c-135 0 -242 -4 -245
-9 -8 -13 75 -91 97 -91 10 0 17 -8 17 -18 0 -10 11 -29 25 -42 14 -13 21 -28
17 -35 -13 -23 -148 -181 -228 -268 -24 -26 -44 -49 -44 -52 0 -2 -11 -15 -25
-29 -14 -14 -25 -30 -25 -36 0 -6 62 -10 180 -10 146 0 185 3 204 15 21 14 24
14 29 0 9 -21 100 -21 117 0 16 19 39 19 46 0 8 -21 100 -21 108 0 3 8 12 15
20 15 8 0 21 -7 30 -15 8 -8 31 -15 51 -15 20 0 43 7 51 15 9 8 22 15 29 15 7
0 20 -7 29 -15 13 -13 119 -15 834 -15 720 0 821 2 826 15 7 19 45 19 52 0 8
-21 90 -21 98 0 7 19 40 19 56 0 8 -9 29 -15 55 -15 29 0 45 5 49 15 7 19 45
19 52 0 4 -10 21 -15 54 -15 33 0 50 5 54 15 7 19 45 19 52 0 9 -23 85 -20
106 4 15 18 15 24 -2 90 -10 39 -15 72 -12 74 6 3 223 1 230 -2 1 0 -2 -10 -8
-21 -13 -24 -37 -26 -62 -3 -11 9 -18 11 -18 5 0 -7 3 -12 8 -12 4 0 8 -19 9
-43 4 -66 5 -68 34 -74 15 -3 30 -11 33 -19 8 -20 82 -19 90 1 7 19 40 19 56
0 15 -18 96 -20 104 -2 5 9 7 9 12 0 4 -10 472 -13 2290 -13 l2284 0 0 80 c0
57 4 80 13 80 54 0 205 24 262 41 146 44 285 135 362 240 21 27 42 49 48 49 5
0 17 -15 25 -33 11 -23 23 -33 43 -35 21 -3 27 -9 27 -26 0 -28 29 -56 58 -56
16 0 22 -6 22 -23 0 -27 28 -57 53 -57 10 0 17 -8 17 -18 0 -11 8 -26 18 -35
16 -15 49 -17 255 -17 l237 0 0 362 0 361 -23 31 c-37 49 -43 63 -18 42 12
-11 29 -35 38 -53 8 -18 22 -33 29 -33 8 0 14 -5 14 -11 0 -5 -6 -7 -12 -3
-10 5 -10 4 -1 -6 18 -20 41 -20 39 -1 -1 14 28 16 294 19 286 2 296 3 313 23
16 20 17 14 17 -155 l0 -176 -237 0 -237 0 201 -200 201 -200 236 0 236 0 0
818 c0 781 -1 820 -18 835 -10 10 -28 17 -40 17 -16 0 -22 6 -22 23 0 29 -18
47 -47 47 -17 0 -23 6 -23 23 0 29 -29 57 -58 57 -16 0 -22 6 -22 23 0 27 -28
57 -53 57 -9 0 -17 7 -17 15 0 20 -68 95 -86 95 -12 0 -14 -69 -14 -423 l0
-423 -227 3 c-149 2 -229 -1 -234 -8 -3 -6 -9 29 -12 78 l-6 88 -103 150 c-89
130 -128 176 -297 345 -106 107 -188 185 -182 172 7 -13 43 -67 81 -121 179
-256 480 -704 480 -715 0 -4 -5 -4 -12 0 -7 4 -115 10 -242 12 -219 4 -229 3
-222 -15 8 -22 -18 9 -66 79 -18 26 -36 48 -40 48 -5 0 -8 -30 -8 -66 0 -39
-4 -63 -10 -59 -13 8 -437 8 -450 0 -7 -4 -10 46 -10 146 l0 153 -112 114
c-62 63 -137 138 -167 166 -45 42 -50 45 -29 16 85 -115 128 -259 135 -452 l6
-137 -249 0 c-199 0 -249 -3 -255 -14 -5 -7 -13 -45 -19 -83 -26 -171 -71
-242 -187 -300 -29 -15 -53 -33 -53 -40 0 -17 2 -17 335 -14 213 2 251 4 261
18 6 9 18 13 28 9 9 -4 16 -2 16 4 0 5 9 20 21 32 38 40 -32 -79 -81 -137
-135 -161 -322 -245 -580 -261 -114 -8 -265 6 -370 32 -194 48 -349 166 -445
338 l-28 50 26 -30 c15 -16 26 -34 27 -38 0 -5 4 -5 10 -2 5 3 7 0 5 -8 -5
-11 17 -13 122 -9 70 2 130 8 131 13 5 12 162 12 162 -1 0 -6 33 -10 80 -10
64 0 80 3 80 15 0 8 5 15 10 15 6 0 10 -4 10 -10 0 -5 18 -10 40 -10 22 0 40
4 40 8 0 4 -15 6 -34 4 -18 -2 -37 1 -40 7 -4 6 -18 11 -30 11 -13 0 -29 7
-36 15 -11 13 -8 13 30 0 23 -8 76 -15 116 -15 l74 0 0 53 c1 167 44 318 109
384 27 26 111 73 133 73 35 1 39 14 27 96 -26 190 -130 303 -296 320 -124 13
-236 -36 -300 -130 -44 -65 -61 -128 -75 -273 -9 -100 -14 -121 -24 -112 -9 7
-89 10 -250 7 l-237 -3 6 120 c7 144 33 252 86 360 41 83 41 105 0 105 -12 0
-19 7 -19 19 0 21 -44 61 -66 61 -8 0 -14 7 -14 15 0 23 -32 55 -56 55 -16 0
-21 5 -18 18 3 11 -10 31 -35 56 -70 68 -70 69 -64 -285 5 -313 -2 -553 -17
-529 -10 16 -471 11 -482 -5 -4 -5 -8 80 -8 190 l0 200 -161 160 -161 160 35
-65 c38 -70 67 -157 67 -200 l0 -27 -107 -6 c-362 -22 -373 -22 -373 2 0 62
-65 144 -135 171 -46 18 -166 15 -208 -5 -61 -29 -87 -95 -57 -149 20 -38 77
-61 265 -105 338 -79 479 -145 577 -269 16 -19 28 -42 28 -51 -1 -14 -2 -14
-10 1 -8 12 -17 15 -38 10 -15 -4 -235 -7 -489 -7 -253 0 -459 -3 -456 -8 2
-4 -18 2 -46 13 -188 74 -295 199 -309 359 l-5 64 -135 135 c-74 74 -133 130
-130 126 2 -5 18 -39 36 -75 33 -67 65 -188 53 -200 -6 -7 -341 -29 -428 -29
-42 0 -43 1 -54 44 -14 58 -67 119 -121 141 -57 23 -172 24 -215 2 -78 -41
-98 -124 -41 -172 42 -35 52 -39 249 -85 280 -65 421 -122 522 -210 42 -37 95
-107 86 -114 -2 -1 -51 1 -109 5 -58 5 -292 8 -521 8 l-416 -1 -64 32 c-35 17
-73 39 -84 48 -36 30 -13 5 134 -143 79 -80 141 -148 137 -152 -4 -4 -11 -2
-15 5 -6 11 -41 11 -179 3 -231 -15 -218 -16 -230 17 -6 15 -36 95 -67 177
-179 476 -196 515 -229 515 -6 0 -19 14 -28 30 -9 17 -29 35 -43 40 -14 5 -25
16 -25 23 0 15 -41 57 -56 57 -5 1 -18 15 -29 33 -11 18 -30 36 -43 42 -12 5
-22 13 -22 18 0 10 -81 97 -90 97 -5 0 50 -154 122 -342z m2427 -658 c89 -89
159 -165 156 -170 -10 -16 -25 -11 -25 8 0 10 -25 42 -55 71 l-55 53 -170 -13
-170 -12 -103 99 c-57 54 -102 101 -101 102 3 5 206 19 295 21 l67 1 161 -160z
m1141 118 c0 -11 -4 -17 -8 -14 -5 3 -20 -1 -35 -9 -24 -12 -28 -12 -39 4 -7
10 -22 23 -33 29 -17 10 -8 12 48 10 59 -1 67 -4 67 -20z m33 -15 c-8 -52 -13
-54 -13 -5 0 23 4 42 9 42 6 0 7 -17 4 -37z m-33 -53 c-11 -7 -31 -7 -50 0 -3
1 6 5 20 9 28 9 48 2 30 -9z m-2438 -263 c25 -12 36 -23 35 -37 -2 -24 -10
-25 -26 -6 -10 11 -8 15 6 19 10 3 6 4 -9 4 -15 -1 -24 -5 -22 -9 3 -4 0 -8
-5 -8 -6 0 -11 8 -11 18 0 20 -38 61 -55 60 -5 0 -15 9 -21 21 -7 13 -27 39
-45 59 -19 20 0 5 41 -34 42 -38 92 -77 112 -87z m1845 31 c-3 -8 -6 -5 -6 6
-1 11 2 17 5 13 3 -3 4 -12 1 -19z m3215 -90 c12 -42 22 -47 37 -20 6 9 11 11
11 5 0 -16 340 -19 340 -3 0 5 7 7 15 4 9 -4 17 1 21 12 20 63 23 44 23 -138
l1 -198 -235 0 -235 0 2 228 c1 125 3 209 5 187 2 -22 8 -57 15 -77z m-5725
80 c-3 -8 -6 -5 -6 6 -1 11 2 17 5 13 3 -3 4 -12 1 -19z m2158 2 c10 -11 16
-20 13 -20 -3 0 -13 9 -23 20 -10 11 -16 20 -13 20 3 0 13 -9 23 -20z m2306 3
c13 -16 12 -17 -3 -4 -10 7 -18 15 -18 17 0 8 8 3 21 -13z m-6070 -30 c-12
-20 -14 -14 -5 12 4 9 9 14 11 11 3 -2 0 -13 -6 -23z m2243 -88 c45 -13 59
-14 78 -4 13 7 25 11 28 10 2 -1 6 2 8 8 2 6 -3 11 -12 11 -9 0 -16 -4 -16
-10 0 -5 -4 -10 -8 -10 -14 0 -7 53 7 58 9 3 11 0 6 -8 -5 -8 -4 -11 3 -6 6 3
26 0 44 -9 18 -8 25 -13 15 -10 -10 3 -16 1 -13 -4 3 -5 15 -11 26 -14 11 -3
18 -1 15 3 -3 5 8 5 24 0 24 -7 35 -3 65 22 20 16 36 24 36 18 0 -6 5 -8 12
-4 7 4 8 3 4 -4 -4 -6 -2 -20 4 -31 8 -16 17 -19 48 -14 20 3 39 10 40 15 6
14 322 10 322 -4 0 -9 3 -9 12 0 10 10 10 15 -2 23 -12 8 -11 9 5 7 13 -2 21
4 23 17 2 11 8 24 13 29 14 15 -6 -44 -36 -109 -40 -84 -141 -182 -236 -229
-146 -71 -327 -97 -546 -78 -309 26 -462 111 -560 310 -20 40 -34 75 -31 78 3
3 20 -23 37 -58 18 -35 31 -54 30 -43 -1 11 -1 27 0 35 1 13 2 13 11 0 6 -9
10 -10 10 -3 0 9 52 12 215 10 169 -2 214 1 210 11 -2 6 3 12 12 12 14 0 14 2
-2 20 -10 11 -22 17 -28 13 -5 -3 -7 -1 -3 5 3 6 2 13 -4 17 -5 3 -10 10 -10
14 0 4 20 -12 45 -35 31 -30 62 -48 99 -59z m326 90 c0 -8 -4 -15 -10 -15 -5
0 -7 7 -4 15 4 8 8 15 10 15 2 0 4 -7 4 -15z m2690 -190 l0 -205 -250 0 -250
0 1 188 c1 145 3 180 11 155 11 -32 12 -33 69 -33 33 0 59 4 59 10 0 6 60 10
159 10 88 0 166 3 175 6 10 4 16 18 16 40 0 19 2 34 5 34 3 0 5 -92 5 -205z
m-699 145 c-53 -138 -136 -228 -274 -294 -137 -66 -217 -81 -427 -80 -281 2
-453 51 -565 162 -51 51 -108 137 -120 182 -6 23 -5 24 8 7 11 -14 16 -15 20
-5 3 7 6 2 6 -11 1 -22 4 -23 39 -17 20 3 136 6 257 7 121 0 214 3 208 6 -7 2
-13 10 -13 16 0 6 -10 22 -22 35 -16 17 -8 14 23 -10 41 -31 123 -62 146 -56
5 1 18 -1 29 -5 13 -5 40 -1 65 8 24 8 51 15 60 15 9 0 22 7 29 16 8 8 23 20
34 26 20 11 20 10 3 -9 -21 -25 -13 -35 20 -22 37 14 150 11 156 -3 4 -10 8
-9 16 2 9 12 13 13 20 2 10 -16 238 -15 258 0 7 6 15 25 19 44 3 19 10 34 15
34 5 0 0 -22 -10 -50z m-3021 -151 c38 -101 70 -187 70 -191 0 -5 -117 -8
-260 -8 l-259 0 -20 68 c-11 37 -28 97 -38 134 l-17 67 -294 3 -293 3 -10 -40
c-6 -22 -24 -84 -41 -137 l-30 -98 -244 0 c-222 0 -244 -2 -244 -17 0 -9 10
-27 22 -40 16 -17 18 -22 6 -18 -12 5 -18 -1 -23 -24 -7 -35 -25 -42 -25 -11
0 12 -6 20 -12 19 -42 -5 -66 2 -71 22 -4 13 -12 19 -23 17 -17 -3 -34 -28
-84 -126 -12 -23 -25 -40 -30 -37 -9 6 -20 -19 -20 -47 0 -10 -7 -26 -15 -34
-13 -14 -15 13 -15 240 l0 256 169 0 c123 0 171 3 178 13 5 6 22 45 37 85 16
40 32 69 38 66 5 -4 8 -17 5 -30 -4 -23 11 -29 25 -9 5 7 8 7 8 0 0 -12 509
-11 633 0 59 6 77 5 77 -5 0 -13 132 -12 564 6 130 6 160 4 167 -7 7 -11 9
-11 9 3 0 9 -4 20 -10 23 -5 3 -10 16 -10 27 0 12 2 19 5 16 3 -2 36 -87 75
-189z m2284 178 c-2 -7 -14 -13 -25 -13 -19 0 -19 1 -3 13 10 7 21 13 26 13 4
0 5 -6 2 -13z m-1824 -502 c-1 -5 -9 0 -19 13 -11 12 -30 22 -43 21 -23 -1
-23 -1 2 -8 28 -8 39 -43 20 -66 -8 -10 -8 -19 -1 -34 6 -11 11 -26 11 -33 -1
-17 -34 56 -75 166 l-34 90 69 -69 c39 -38 70 -74 70 -80z m-2042 22 c12 1 22
-3 22 -8 0 -15 -43 -10 -65 8 l-20 16 20 -8 c11 -5 30 -8 43 -8z m-30 -25 c3
-9 -2 -13 -14 -10 -9 1 -19 9 -22 16 -3 9 2 13 14 10 9 -1 19 -9 22 -16z m42
-9 c0 -5 -5 -15 -10 -23 -8 -12 -10 -11 -10 8 0 12 5 22 10 22 6 0 10 -3 10
-7z m1269 -18 c12 -10 21 -22 21 -27 0 -4 -9 1 -20 12 -11 11 -26 20 -34 20
-17 0 -32 -19 -17 -21 6 -1 16 -3 21 -4 6 -1 13 -3 18 -4 4 -1 0 -6 -8 -12
-12 -9 -12 -10 3 -5 28 9 57 -11 57 -39 0 -18 -7 -26 -26 -31 -28 -7 -44 7
-44 38 0 12 -5 15 -15 11 -10 -3 -15 0 -13 8 2 10 -6 13 -25 11 -16 -2 -40 4
-53 13 -41 26 -56 1 -65 -112 -9 -101 -13 -117 -24 -84 -8 25 -18 26 -38 6 -9
-8 -17 -11 -19 -5 -5 16 -98 16 -109 -1 -7 -11 -9 -9 -9 9 0 12 -4 22 -10 22
-5 0 -11 15 -11 33 l-2 32 -7 -35 c-4 -19 -8 -31 -9 -26 0 5 -9 2 -18 -5 -11
-9 -14 -10 -9 -2 4 7 18 57 32 110 14 54 27 100 29 103 2 3 89 5 194 5 171 -1
192 -3 210 -20z m788 -17 c-3 -7 -5 -2 -5 12 0 14 2 19 5 13 2 -7 2 -19 0 -25z
m-23 -13 c38 -16 58 -57 37 -78 -17 -17 -45 4 -49 37 -2 14 -7 26 -12 26 -4 0
-10 7 -14 15 -7 18 -7 18 38 0z m-1951 -12 c-4 -11 -8 -13 -11 -5 -3 10 -7 10
-18 1 -11 -9 -14 -8 -14 5 0 10 9 16 25 16 19 0 23 -4 18 -17z m1241 1 c5 -14
4 -15 -9 -4 -17 14 -19 20 -6 20 5 0 12 -7 15 -16z m-174 -16 c0 -5 4 -7 10
-3 5 3 5 -7 -1 -25 -6 -16 -15 -33 -20 -36 -5 -3 -6 -10 -3 -16 4 -7 2 -8 -5
-4 -6 4 -9 12 -6 17 4 5 -1 9 -9 9 -8 0 -20 9 -26 19 -13 25 -13 27 5 44 15
16 55 12 55 -5z m-2199 -38 c9 -1 8 -4 -5 -12 -15 -9 -22 -7 -33 8 -19 26 -16
40 5 21 10 -10 25 -17 33 -17z m1134 20 c3 -6 -1 -7 -9 -4 -18 7 -21 14 -7 14
6 0 13 -4 16 -10z m1261 -25 c1 -8 -2 -15 -6 -15 -5 0 -8 9 -7 20 1 21 10 18
13 -5z m54 -16 c0 -5 -4 -9 -10 -9 -5 0 -10 7 -10 16 0 8 5 12 10 9 6 -3 10
-10 10 -16z m-178 -23 c17 -12 17 -14 -1 -35 -23 -27 -58 -27 -66 -1 -13 41
31 64 67 36z m45 8 c-3 -3 -12 -4 -19 -1 -8 3 -5 6 6 6 11 1 17 -2 13 -5z
m108 -13 c8 -27 -3 -48 -30 -54 -14 -2 -27 -2 -30 1 -10 11 -5 60 8 65 26 11
46 6 52 -12z m659 4 c-4 -8 -10 -12 -15 -9 -11 6 -2 24 11 24 5 0 7 -7 4 -15z
m-3154 -14 c0 -24 -23 -43 -44 -35 -16 6 -22 35 -9 47 3 4 17 7 30 7 16 0 23
-6 23 -19z m2417 -13 c-3 -7 -5 -2 -5 12 0 14 2 19 5 13 2 -7 2 -19 0 -25z
m-2300 8 c4 -7 15 -15 23 -18 12 -5 12 -7 -3 -13 -19 -8 -47 10 -47 31 0 18
17 18 27 0z m3113 -12 c0 -14 -4 -23 -10 -19 -5 3 -10 15 -10 26 0 10 5 19 10
19 6 0 10 -12 10 -26z m-1308 -76 c-8 -8 -9 -4 -5 13 4 13 8 18 11 10 2 -7 -1
-18 -6 -23z m1283 1 c7 -22 -10 -49 -30 -49 -7 0 -19 7 -26 16 -11 14 -11 18
4 29 9 7 17 17 17 23 0 18 29 2 35 -19z m-3277 -7 c4 -30 -26 -42 -44 -17 -10
14 -11 22 -2 32 16 20 42 12 46 -15z m157 8 c8 -26 -1 -40 -26 -40 -22 0 -34
22 -25 45 8 22 44 18 51 -5z m142 0 c29 0 29 -11 2 -36 -20 -18 -21 -18 -35 1
-18 24 -20 65 -2 47 7 -7 22 -12 35 -12z m2041 -6 c4 -25 -22 -49 -43 -40 -15
5 -21 47 -8 60 14 14 48 1 51 -20z m158 4 c6 -20 -15 -48 -37 -48 -15 0 -28
27 -22 48 7 30 49 30 59 0z m157 7 c3 -7 -2 -24 -12 -37 -16 -19 -21 -20 -35
-9 -16 14 -21 42 -9 54 12 13 51 7 56 -8z m-2023 -26 c7 -11 9 -23 6 -27 -3
-3 -6 0 -6 6 0 9 -5 9 -19 0 -15 -9 -23 -9 -35 1 -21 17 -20 28 2 34 33 9 41
7 52 -14z m110 7 c0 -8 -4 -18 -10 -21 -5 -3 -10 3 -10 14 0 12 5 21 10 21 6
0 10 -6 10 -14z m2065 4 c7 -11 -11 -40 -24 -40 -17 0 -43 28 -37 38 9 15 53
16 61 2z m-2335 -9 c0 -15 -29 -33 -45 -27 -28 10 -17 36 15 36 17 0 30 -4 30
-9z m2722 -66 c-4 -17 -12 -39 -19 -50 -12 -20 -12 -20 -33 3 -16 17 -20 30
-15 49 5 21 10 24 35 21 17 -3 30 0 30 5 0 6 2 8 4 6 3 -2 1 -18 -2 -34z
m-3122 0 c0 -2 -3 -11 -6 -19 -5 -13 -9 -14 -20 -5 -11 9 -14 8 -14 -2 -1 -9
-4 -8 -11 4 -15 26 6 50 32 36 10 -5 19 -11 19 -14z m145 8 c17 -23 1 -55 -23
-46 -27 10 -32 26 -15 45 20 22 23 22 38 1z m153 5 c14 -14 15 -28 3 -47 -7
-10 -13 -11 -30 -2 -11 7 -21 17 -21 24 0 13 19 37 30 37 3 0 11 -5 18 -12z
m162 -3 c6 -8 10 -22 8 -32 -5 -25 -51 -25 -56 0 -8 42 23 63 48 32z m158 -17
c-2 -25 -8 -34 -24 -36 -24 -3 -35 16 -27 47 4 14 13 21 30 21 21 0 24 -4 21
-32z m1717 21 c4 -5 4 -21 1 -35 -5 -19 -12 -25 -29 -22 -37 5 -36 68 2 68 11
0 23 -5 26 -11z m156 -10 c9 -18 8 -25 -7 -40 -17 -15 -21 -16 -38 -4 -13 10
-17 21 -12 39 8 32 41 35 57 5z m157 -8 c5 -30 -10 -45 -37 -36 -21 6 -29 43
-14 59 15 15 48 1 51 -23z m155 7 c8 -12 7 -21 -2 -32 -18 -22 -38 -20 -51 5
-22 40 29 66 53 27z m467 1 c14 -26 -4 -51 -34 -47 -24 4 -33 33 -16 53 17 21
37 19 50 -6z m-3436 3 c8 -13 -7 -29 -26 -29 -21 0 -24 23 -5 30 19 8 25 8 31
-1z m2356 -23 c0 -5 -4 -9 -10 -9 -5 0 -10 7 -10 16 0 8 5 12 10 9 6 -3 10
-10 10 -16z"/>
<path d="M4650 916 c-9 -12 -8 -15 8 -13 10 0 19 7 19 14 0 17 -12 17 -27 -1z"/>
<path d="M1304 1879 c-3 -6 -5 -87 -3 -181 l4 -170 125 4 c111 3 130 6 170 28
24 14 55 41 68 60 20 30 23 44 20 97 -6 89 -51 144 -134 163 -56 13 -241 12
-250 -1z"/>
<path d="M55 648 c-56 -31 -55 -23 -55 -348 l0 -300 300 0 300 0 0 30 c0 23
-4 30 -20 30 -19 0 -20 7 -20 100 0 93 -1 100 -20 100 -13 0 -20 7 -20 19 0
11 -9 23 -20 26 -13 4 -20 15 -20 31 0 15 -6 24 -16 24 -9 0 -29 14 -44 30
-15 17 -35 30 -44 30 -9 0 -16 7 -16 15 0 12 -16 15 -82 15 -94 0 -158 14
-158 35 0 7 -6 16 -12 18 -10 4 -10 8 1 15 17 12 19 94 2 100 -6 2 -11 12 -11
23 0 21 -15 24 -45 7z"/>
<path d="M3962 15 c-11 -12 -10 -15 3 -15 8 0 15 7 15 15 0 18 -2 18 -18 0z"/>
</g>
</svg>
